<svg width="34" height="34" viewBox="0 0 34 34" fill="none" xmlns="http://www.w3.org/2000/svg">
<path d="M21.8 12.2C21.8 9.54904 19.651 7.4 17 7.4C14.349 7.4 12.2 9.54904 12.2 12.2C12.2 14.851 14.349 17 17 17C19.651 17 21.8 14.851 21.8 12.2Z" stroke="white" stroke-width="1.5" stroke-linecap="round" stroke-linejoin="round"/>
<path d="M33 17C33 8.16344 25.8365 1 17 1C8.16344 1 1 8.16344 1 17C1 25.8365 8.16344 33 17 33C25.8365 33 33 25.8365 33 17Z" stroke="white" stroke-width="1.5" stroke-linecap="round" stroke-linejoin="round"/>
<path d="M25 25C25 20.5818 21.4182 17 17 17C12.5817 17 9 20.5818 9 25" stroke="white" stroke-width="1.5" stroke-linecap="round" stroke-linejoin="round"/>
</svg>
