<svg width="34" height="34" viewBox="0 0 34 34" fill="none" xmlns="http://www.w3.org/2000/svg">
<path d="M10.6 23.4L24.5522 22.2373C28.9178 21.8736 29.8978 20.92 30.3816 16.5662L31.4 7.39999" stroke="white" stroke-width="1.5" stroke-linecap="round"/>
<path d="M7.4 7.39999H33" stroke="white" stroke-width="1.5" stroke-linecap="round"/>
<path d="M7.4 33C9.16731 33 10.6 31.5673 10.6 29.8C10.6 28.0327 9.16731 26.6 7.4 26.6C5.63269 26.6 4.2 28.0327 4.2 29.8C4.2 31.5673 5.63269 33 7.4 33Z" stroke="white" stroke-width="1.5"/>
<path d="M25 33C26.7673 33 28.2 31.5673 28.2 29.8C28.2 28.0327 26.7673 26.6 25 26.6C23.2327 26.6 21.8 28.0327 21.8 29.8C21.8 31.5673 23.2327 33 25 33Z" stroke="white" stroke-width="1.5"/>
<path d="M10.6 29.8H21.8" stroke="white" stroke-width="1.5" stroke-linecap="round"/>
<path d="M1 1H2.5456C4.05709 1 5.37462 1.99934 5.74122 3.42389L10.5016 21.9224C10.7422 22.8573 10.5363 23.8475 9.94118 24.6186L8.41141 26.6" stroke="white" stroke-width="1.5" stroke-linecap="round"/>
</svg>
