<svg width="22" height="22" viewBox="0 0 22 22" fill="none" xmlns="http://www.w3.org/2000/svg">
<path d="M7 15L15.7201 14.2733C18.4486 14.046 19.0611 13.45 19.3635 10.7289L20 5" stroke="white" stroke-width="1.5" stroke-linecap="round"/>
<path d="M5 5H7.5M21 5H17.5" stroke="white" stroke-width="1.5" stroke-linecap="round"/>
<path d="M10 7.5C10.4915 8.0057 11.7998 10 12.5 10M12.5 10C13.2002 10 14.5085 8.0057 15 7.5M12.5 10V2" stroke="white" stroke-width="1.5" stroke-linecap="round" stroke-linejoin="round"/>
<path d="M5 21C6.10457 21 7 20.1046 7 19C7 17.8954 6.10457 17 5 17C3.89543 17 3 17.8954 3 19C3 20.1046 3.89543 21 5 21Z" stroke="white" stroke-width="1.5"/>
<path d="M16 21C17.1046 21 18 20.1046 18 19C18 17.8954 17.1046 17 16 17C14.8954 17 14 17.8954 14 19C14 20.1046 14.8954 21 16 21Z" stroke="white" stroke-width="1.5"/>
<path d="M7 19H14" stroke="white" stroke-width="1.5" stroke-linecap="round"/>
<path d="M1 1H1.966C2.91068 1 3.73414 1.62459 3.96326 2.51493L6.93852 14.0765C7.08887 14.6608 6.9602 15.2797 6.58824 15.7616L5.63213 17" stroke="white" stroke-width="1.5" stroke-linecap="round"/>
</svg>
