<svg width="64" height="64" viewBox="0 0 64 64" fill="none" xmlns="http://www.w3.org/2000/svg">
<path d="M5.33333 29C3.2031 30.4127 2 32.0162 2 33.716C2 39.3956 15.4315 44 32 44C48.5687 44 62 39.3956 62 33.716C62 32.0162 60.797 30.4127 58.6667 29" stroke="#484343" stroke-width="4" stroke-linecap="round"/>
<path d="M25.3333 23.7657C17.3544 19.875 8.9352 13.1428 2 2M30.7183 9.25703C23.935 5.2505 15.6581 6.92495 12.2313 12.997C8.80447 19.0691 11.5255 27.2393 18.3088 31.2458C24.4499 34.8731 37.8907 38.6237 48.6667 28.235C38.5687 24.3646 37.5017 13.2635 30.7183 9.25703Z" stroke="#484343" stroke-width="4" stroke-linecap="round" stroke-linejoin="round"/>
<path d="M62 35C62 45.7298 53.6453 55.1441 44.6503 60.4466C42.8007 61.5371 40.6013 62 38.3903 62H25.6097C23.3986 62 21.1992 61.5371 19.3495 60.4466C10.3547 55.1441 2 45.7298 2 35" stroke="#484343" stroke-width="4" stroke-linecap="round"/>
</svg>
