<svg width="64" height="64" viewBox="0 0 64 64" fill="none" xmlns="http://www.w3.org/2000/svg">
<path d="M37.1828 6.33253L42.4622 16.9786C43.1822 18.4606 45.1019 19.8821 46.7219 20.1543L56.2907 21.7572C62.4101 22.7856 63.8501 27.2618 59.4404 31.6775L52.0013 39.1781C50.7413 40.4483 50.0516 42.8981 50.4413 44.6525L52.5713 53.9375C54.251 61.2869 50.3813 64.13 43.9322 60.2888L34.9631 54.9356C33.3434 53.9678 30.6737 53.9678 29.0237 54.9356L20.0548 60.2888C13.6355 64.13 9.73594 61.2566 11.4158 53.9375L13.5455 44.6525C13.9355 42.8981 13.2456 40.4483 11.9857 39.1781L4.54652 31.6775C0.166999 27.2618 1.57685 22.7856 7.69616 21.7572L17.2651 20.1543C18.8549 19.8821 20.7747 18.4606 21.4946 16.9786L26.774 6.33253C29.6537 0.555823 34.3331 0.555823 37.1828 6.33253Z" stroke="#484343" stroke-width="3" stroke-linecap="round" stroke-linejoin="round"/>
</svg>
